<?xml version="1.0" ?><svg viewBox="0 0 512 512" xmlns="http://www.w3.org/2000/svg"><title/><g data-name="1" id="_1"><path d="M413.12,295.76H150.46a15,15,0,0,1-14.89-13.23L116,117.66c0-.14,0-.28,0-.43l-4.52-38H69.13a15,15,0,1,1,0-30h55.6a15,15,0,0,1,14.9,13.23l4.54,38.23h297a15,15,0,0,1,14.79,17.51l-28,165.1A15,15,0,0,1,413.12,295.76Zm-249.33-30H400.45l22.92-135.1H147.73Z"/><path d="M410.65,349.37H156.84a15,15,0,0,1-14.9-13.23l-16.6-139.69a15,15,0,1,1,29.79-3.54l15,126.46H410.65a15,15,0,0,1,0,30Z"/><path d="M191.41,448.16a44.49,44.49,0,1,1,44.48-44.48A44.53,44.53,0,0,1,191.41,448.16Zm0-59a14.49,14.49,0,1,0,14.48,14.49A14.5,14.5,0,0,0,191.41,389.19Z"/><path d="M370.13,448.16a44.49,44.49,0,1,1,44.48-44.48A44.53,44.53,0,0,1,370.13,448.16Zm0-59a14.49,14.49,0,1,0,14.48,14.49A14.5,14.5,0,0,0,370.13,389.19Z"/></g></svg>